<?xml version="1.0" standalone="no"?>
<!DOCTYPE svg PUBLIC "-//W3C//DTD SVG 20010904//EN"
 "http://www.w3.org/TR/2001/REC-SVG-20010904/DTD/svg10.dtd">
<svg version="1.0" xmlns="http://www.w3.org/2000/svg"
 width="1280.000000pt" height="1280.000000pt" viewBox="0 0 1280.000000 1280.000000"
 preserveAspectRatio="xMidYMid meet">
<metadata>
Created by potrace 1.15, written by Peter Selinger 2001-2017
</metadata>
<g transform="translate(0.000000,1280.000000) scale(0.100000,-0.100000)"
fill="#000000" stroke="none">
<path d="M6095 12794 c-1500 -80 -2884 -654 -3987 -1653 -1111 -1006 -1833
-2361 -2042 -3831 -49 -341 -60 -508 -60 -910 0 -402 11 -569 60 -910 174
-1226 711 -2384 1539 -3325 114 -129 431 -446 560 -560 941 -828 2099 -1365
3325 -1539 341 -49 508 -60 910 -60 402 0 569 11 910 60 1226 174 2384 711
3325 1539 129 114 446 431 560 560 828 941 1365 2099 1539 3325 49 341 60 508
60 910 0 402 -11 569 -60 910 -174 1226 -711 2384 -1539 3325 -114 129 -431
446 -560 560 -759 668 -1661 1148 -2630 1400 -329 85 -685 147 -1040 180 -162
15 -716 27 -870 19z m885 -178 c1277 -129 2441 -613 3405 -1416 245 -204 665
-614 665 -650 0 -5 -8 -10 -19 -10 -20 0 -55 37 -145 153 -34 43 -86 96 -124
124 -37 26 -82 61 -100 77 -18 16 -41 30 -50 31 -9 1 -39 12 -65 24 -48 21
-77 27 -77 15 0 -10 125 -125 153 -140 84 -45 295 -227 372 -323 82 -100 121
-138 165 -161 66 -34 238 -236 389 -458 36 -52 69 -91 76 -88 13 5 178 -263
284 -462 334 -622 564 -1324 666 -2025 51 -354 59 -475 59 -907 0 -432 -8
-553 -59 -907 -154 -1061 -587 -2072 -1253 -2927 -100 -127 -129 -145 -234
-146 l-68 0 0 -37 c0 -21 -3 -47 -6 -59 -5 -19 -2 -21 28 -20 18 1 41 9 50 19
10 9 23 17 28 17 18 0 -5 -30 -90 -120 -45 -47 -73 -72 -64 -57 10 17 13 32 8
37 -6 6 -46 -26 -104 -84 -105 -103 -268 -215 -485 -335 -136 -75 -208 -132
-189 -151 13 -13 60 3 90 31 14 13 38 21 72 23 46 2 59 9 125 63 40 34 96 74
123 89 27 15 67 44 90 64 77 70 89 61 14 -10 -473 -448 -962 -792 -1520 -1071
-707 -353 -1394 -550 -2220 -636 -234 -24 -906 -24 -1140 0 -824 86 -1515 284
-2220 636 -721 361 -1327 829 -1904 1471 l-41 45 55 -51 c117 -108 181 -151
237 -159 45 -6 53 -4 53 9 0 9 -15 22 -33 30 -78 32 -293 210 -380 314 -106
127 -125 147 -132 140 -4 -3 -1 -16 5 -28 19 -35 -2 -16 -38 34 -32 44 -32 46
-11 46 17 0 20 4 15 23 -4 12 -10 41 -13 65 -5 35 -3 42 12 42 28 0 77 -48
100 -98 12 -26 56 -83 97 -127 41 -44 105 -115 142 -158 66 -75 146 -139 230
-184 44 -23 140 -31 151 -13 4 6 -17 21 -47 35 -29 13 -73 42 -97 64 -25 23
-48 41 -53 41 -5 0 -64 53 -132 118 -203 192 -289 311 -290 401 l-1 44 -54 17
c-97 32 -207 165 -315 380 -26 52 -51 102 -56 110 -5 8 -17 37 -27 64 -21 54
-43 72 -43 34 0 -66 95 -285 190 -438 72 -117 88 -144 99 -165 5 -11 25 -36
45 -54 20 -19 36 -39 36 -43 0 -4 -18 -8 -40 -8 -81 0 -194 144 -405 515 -375
660 -631 1407 -740 2158 -51 354 -59 475 -59 907 0 432 8 553 59 907 130 900
464 1770 970 2533 152 228 313 440 335 440 37 0 50 12 50 45 0 38 26 74 176
240 213 236 264 285 346 326 42 21 93 52 112 69 19 17 55 38 79 46 25 8 61 32
82 52 40 41 32 55 -13 22 -16 -12 -49 -24 -73 -26 l-44 -5 55 51 c80 76 316
263 464 370 965 694 2072 1086 3291 1164 143 9 777 -3 925 -18z"/>
<path d="M10115 10860 c3 -5 8 -10 11 -10 2 0 4 5 4 10 0 6 -5 10 -11 10 -5 0
-7 -4 -4 -10z"/>
<path d="M2312 10799 c-51 -33 -74 -42 -125 -47 -34 -3 -77 -11 -96 -19 -61
-26 -237 -219 -296 -325 -19 -36 -35 -68 -35 -71 0 -17 30 -4 52 22 12 15 38
47 57 71 57 69 102 108 171 144 36 19 79 49 95 66 17 17 62 52 100 77 134 88
145 96 145 109 0 8 -1 14 -3 14 -1 0 -30 -18 -65 -41z"/>
<path d="M10305 10756 l-29 -12 49 -34 c28 -18 76 -55 107 -82 32 -27 72 -55
90 -63 18 -7 47 -28 63 -45 17 -18 68 -62 115 -98 115 -89 227 -198 252 -247
27 -54 55 -83 87 -90 37 -8 138 -89 163 -131 11 -19 23 -34 27 -34 5 0 39 -48
76 -107 38 -60 78 -119 90 -133 22 -26 75 -106 75 -114 0 -3 10 -21 22 -41 18
-31 23 -34 30 -20 6 10 6 21 0 28 -5 7 -30 65 -56 131 -49 121 -66 154 -151
286 -61 95 -173 240 -186 240 -5 0 -22 12 -36 26 -24 25 -29 25 -66 14 -21 -6
-40 -10 -42 -8 -1 2 -12 22 -24 45 -11 23 -51 74 -88 115 -38 40 -86 95 -107
121 -53 65 -180 168 -256 209 -35 18 -72 39 -84 45 -27 16 -83 16 -121 -1z"/>
<path d="M2480 10613 c-14 -9 -29 -23 -33 -30 -4 -7 -13 -13 -18 -13 -6 0 -27
-11 -47 -25 -25 -17 -50 -25 -78 -25 -105 0 -306 -203 -416 -421 -48 -93 -74
-209 -48 -209 10 0 60 73 60 88 0 6 12 19 26 28 14 10 39 38 56 63 68 99 194
241 215 241 27 0 90 49 103 80 7 17 33 45 59 62 55 37 161 145 161 164 0 18
-10 18 -40 -3z m-250 -233 c-11 -20 -40 -28 -40 -12 0 7 32 27 48 31 1 1 -2
-8 -8 -19z"/>
<path d="M9960 10575 c0 -9 14 -24 31 -33 47 -25 330 -225 359 -253 14 -13 61
-51 104 -83 44 -32 100 -80 125 -106 54 -54 136 -165 149 -201 13 -32 27 -43
79 -57 43 -13 121 -87 174 -168 77 -115 295 -493 323 -559 8 -19 24 17 30 72
3 30 2 72 -4 94 -15 54 -102 236 -134 278 -14 19 -26 42 -26 51 0 8 -21 51
-47 94 -27 43 -60 98 -74 123 -28 48 -95 123 -111 123 -4 0 -13 11 -18 25 -11
29 -27 31 -78 9 -37 -15 -37 -15 -62 14 -14 16 -41 58 -60 93 -25 45 -56 80
-109 123 -40 34 -96 82 -125 107 -137 123 -272 198 -356 197 -44 0 -58 5 -97
36 -50 39 -73 45 -73 21z"/>
<path d="M9556 10412 c-3 -5 23 -37 58 -73 61 -62 88 -86 206 -179 32 -25 91
-73 131 -107 41 -34 92 -74 114 -89 118 -80 253 -250 304 -385 8 -22 17 -27
60 -32 28 -3 64 -13 79 -22 26 -16 95 -112 119 -169 15 -33 100 -173 120 -197
7 -8 13 -24 13 -35 0 -10 20 -48 45 -83 25 -36 45 -69 45 -75 0 -6 7 -24 16
-41 9 -16 24 -52 33 -79 22 -69 38 -69 46 -1 13 101 1 223 -29 300 -52 133
-65 160 -98 217 -18 31 -49 85 -68 119 -36 63 -61 92 -124 142 -20 16 -36 34
-36 40 1 16 30 50 55 65 17 10 12 11 -30 6 -27 -4 -62 -15 -77 -25 -36 -26
-57 -24 -68 9 -6 15 -13 32 -17 38 -66 95 -125 166 -204 244 -180 177 -250
235 -332 275 -68 32 -89 37 -155 39 -73 1 -77 2 -78 25 -2 27 -19 41 -51 41
-13 0 -32 9 -43 20 -22 22 -27 24 -34 12z"/>
<path d="M2684 10378 c-12 -5 -25 -23 -28 -39 -4 -22 -11 -29 -28 -29 -61 0
-173 -62 -242 -134 -111 -117 -185 -247 -217 -381 -12 -49 -28 -105 -35 -123
-8 -18 -14 -43 -14 -56 0 -28 -17 -44 -57 -55 -55 -16 -349 -218 -390 -269
-60 -73 -108 -142 -136 -197 -24 -46 -57 -171 -57 -215 0 -11 -12 -31 -26 -45
-33 -33 -31 -88 3 -93 16 -2 28 7 48 37 14 23 32 41 40 41 8 0 15 5 15 11 0 5
13 22 29 37 15 15 70 97 122 182 92 154 211 308 272 354 50 37 111 65 178 80
75 18 89 29 66 54 -9 10 -17 24 -17 30 0 6 -9 14 -20 17 -28 9 -24 40 15 110
19 33 40 74 48 90 8 17 24 39 37 50 12 11 39 50 60 86 22 37 55 76 75 90 19
13 55 49 79 79 23 31 69 73 100 94 36 24 63 50 71 70 7 17 22 40 34 50 21 19
43 71 34 80 -9 9 -35 6 -59 -6z"/>
<path d="M3078 10213 c-11 -3 -18 -14 -18 -29 0 -17 -5 -24 -20 -24 -11 0 -23
-6 -26 -14 -3 -8 -38 -30 -77 -49 -86 -42 -124 -79 -198 -189 -121 -181 -130
-202 -150 -373 -6 -49 -13 -109 -16 -133 -4 -38 -9 -44 -41 -58 -96 -40 -249
-154 -424 -315 -84 -77 -103 -102 -138 -172 -22 -45 -45 -107 -51 -137 -5 -30
-13 -67 -16 -82 -3 -15 -16 -34 -29 -43 -16 -11 -24 -25 -24 -45 0 -27 3 -30
33 -30 61 0 177 116 314 315 172 249 227 308 343 370 49 26 108 61 130 77 l40
29 -22 30 -22 29 19 58 c10 31 25 66 32 77 7 11 13 27 13 36 0 19 44 105 65
126 8 8 15 26 15 41 0 19 24 56 75 120 41 51 75 99 75 107 0 7 23 34 51 59 28
25 69 76 91 112 34 57 39 70 29 90 -10 24 -19 26 -53 17z m-448 -892 c0 -5 -7
-12 -16 -15 -24 -9 -28 -7 -14 9 14 17 30 20 30 6z"/>
<path d="M9202 10158 c2 -15 17 -30 41 -43 23 -12 40 -30 44 -45 6 -26 107
-125 173 -169 40 -27 130 -125 130 -142 0 -5 19 -22 43 -38 56 -37 194 -173
221 -219 59 -100 69 -112 95 -118 54 -12 126 -42 132 -55 3 -8 17 -57 29 -109
12 -52 35 -121 51 -152 16 -32 29 -70 29 -86 0 -16 13 -48 29 -73 16 -24 32
-62 35 -84 4 -22 18 -56 31 -76 21 -32 52 -117 74 -199 12 -47 33 -27 66 65
32 89 33 91 20 160 -26 144 -56 247 -102 352 -7 18 -23 69 -34 114 -24 96 -37
125 -73 158 -30 28 -32 42 -10 77 9 13 14 27 11 31 -4 3 -35 -2 -69 -11 -102
-28 -108 -27 -134 22 -13 24 -26 53 -30 65 -12 39 -112 153 -283 324 -47 46
-89 76 -155 108 -49 25 -98 45 -107 45 -10 0 -41 5 -69 11 -43 9 -55 17 -72
46 -18 30 -25 34 -49 29 -22 -4 -31 -1 -39 14 -14 27 -32 25 -28 -2z"/>
<path d="M1576 10143 c-30 -16 -286 -269 -286 -283 0 -4 -21 -34 -46 -66 -72
-93 -123 -210 -109 -254 3 -11 0 -22 -8 -27 -7 -4 -21 -27 -30 -50 -14 -36
-14 -43 -1 -54 12 -10 21 -5 53 29 31 32 40 51 46 92 4 28 17 63 29 78 12 15
32 47 46 72 34 63 153 213 198 248 21 17 60 40 87 52 78 35 80 37 77 56 -1 11
-2 43 -3 72 0 57 -5 60 -53 35z"/>
<path d="M3502 10028 c-18 -18 -14 -46 8 -53 11 -3 20 -15 20 -26 0 -10 6 -19
14 -19 19 0 33 23 18 28 -19 6 -14 22 7 22 21 0 33 22 25 45 -5 12 -9 13 -21
4 -10 -9 -17 -9 -25 -1 -15 15 -31 15 -46 0z"/>
<path d="M3451 9951 c-7 -5 -21 -7 -30 -4 -25 6 -76 -40 -118 -106 -40 -62
-116 -233 -144 -326 -10 -33 -22 -76 -28 -95 -11 -35 -17 -298 -7 -307 14 -15
-21 -45 -91 -79 -70 -33 -95 -54 -242 -203 -95 -96 -183 -195 -210 -236 -49
-76 -110 -207 -111 -241 0 -11 -9 -29 -20 -39 -36 -33 -24 -74 28 -89 20 -7
22 -4 22 24 l0 31 27 -21 28 -22 25 29 c14 16 52 46 85 66 40 23 66 47 77 69
44 94 273 402 355 479 36 35 126 89 147 89 5 0 28 8 50 18 23 11 53 24 68 30
34 14 28 35 -14 53 -17 7 -43 30 -59 52 -33 46 -38 103 -15 158 9 21 11 40 6
50 -8 14 20 85 59 149 5 8 27 54 50 102 23 48 52 100 64 115 13 15 35 65 50
110 l26 83 -22 34 c-23 37 -33 41 -56 27z"/>
<path d="M8743 9943 c-38 -5 -41 -18 -20 -84 9 -30 23 -48 50 -66 21 -13 50
-43 65 -67 31 -49 135 -173 234 -279 66 -72 222 -290 239 -336 9 -22 13 -23
67 -17 74 7 89 -4 101 -80 6 -32 15 -81 21 -109 6 -27 15 -99 19 -160 6 -76
17 -133 35 -185 15 -41 29 -98 31 -127 3 -28 14 -76 25 -105 11 -29 20 -68 20
-87 0 -41 50 -132 86 -156 14 -9 28 -15 30 -12 7 7 -18 72 -37 93 -21 23 -25
75 -7 107 6 12 27 46 47 77 l35 55 3 140 c3 96 -1 167 -12 225 -51 279 -68
358 -84 380 -10 14 -21 37 -24 51 -10 39 -32 42 -87 14 -81 -41 -120 -31 -120
33 0 28 -11 48 -53 96 -29 34 -82 101 -117 149 -35 49 -75 101 -89 116 -14 15
-44 48 -65 72 -22 24 -57 57 -78 72 -39 29 -150 77 -179 77 -11 0 -18 11 -23
38 -6 43 -38 83 -64 80 -9 0 -32 -3 -49 -5z m65 -77 c3 -12 -1 -17 -10 -14 -7
3 -15 13 -16 22 -3 12 1 17 10 14 7 -3 15 -13 16 -22z"/>
<path d="M1755 9834 c-90 -46 -168 -105 -278 -213 -116 -113 -181 -205 -208
-295 -12 -38 -30 -86 -40 -105 -10 -20 -19 -44 -19 -53 0 -10 -4 -18 -10 -18
-5 0 -10 -9 -10 -21 0 -18 4 -20 33 -14 17 4 39 14 47 24 8 9 23 20 32 24 19
7 49 51 106 155 48 88 136 212 205 288 51 55 74 71 188 125 9 4 33 11 53 14
41 8 43 11 19 37 -9 10 -24 34 -32 53 l-16 35 -70 -36z"/>
<path d="M4058 9840 c-13 -17 -51 -60 -85 -96 -75 -79 -95 -126 -133 -316 -16
-75 -30 -141 -33 -145 -14 -23 -3 -232 17 -345 5 -24 -3 -33 -70 -84 -41 -31
-82 -70 -91 -88 -9 -17 -19 -33 -23 -36 -4 -3 -17 -27 -31 -55 -13 -28 -61
-88 -109 -138 -47 -48 -116 -120 -155 -159 -80 -83 -131 -161 -145 -221 -12
-53 -31 -109 -60 -169 -24 -52 -24 -91 1 -96 11 -2 18 7 22 28 4 16 11 30 17
30 12 0 13 -42 1 -56 -18 -19 -23 -54 -8 -54 18 0 73 61 82 92 14 43 65 107
110 138 66 45 185 204 246 328 30 60 67 111 134 185 108 119 179 179 319 273
l39 26 -24 14 c-13 7 -35 13 -50 14 -53 0 -60 39 -34 177 8 43 15 94 15 114 0
53 58 270 81 302 20 28 39 106 44 185 2 24 9 51 18 60 20 23 29 80 17 103 -8
14 -21 19 -50 19 -31 0 -43 -6 -62 -30z"/>
<path d="M8200 9801 c0 -11 5 -23 10 -26 20 -12 9 -25 -15 -19 -20 5 -25 2
-27 -12 -3 -45 6 -71 38 -106 19 -21 34 -42 34 -47 0 -4 13 -25 29 -45 35 -44
123 -213 141 -271 7 -22 18 -47 24 -55 7 -8 32 -53 55 -100 24 -47 54 -99 67
-117 13 -17 24 -38 24 -46 0 -28 29 -39 102 -39 104 -1 112 -7 104 -76 -4 -32
-7 -66 -8 -77 -1 -50 15 -195 28 -239 8 -27 14 -68 14 -90 0 -45 12 -113 46
-269 13 -59 24 -125 24 -146 0 -21 6 -44 14 -50 7 -6 16 -30 19 -52 6 -45 19
-65 36 -55 18 12 13 64 -7 75 -15 8 -17 18 -12 65 5 45 13 63 38 89 24 25 36
51 52 119 17 74 20 110 16 247 -2 88 -6 163 -9 168 -3 4 -24 79 -46 166 -32
119 -39 162 -31 176 16 30 13 35 -35 54 -31 13 -56 17 -83 12 -45 -7 -57 3
-67 58 -5 24 -16 44 -31 54 -13 8 -24 20 -24 25 0 5 -33 78 -74 161 -49 102
-86 165 -112 190 -53 53 -148 119 -197 137 -36 13 -43 21 -60 70 -20 59 -42
90 -64 90 -7 0 -13 -9 -13 -19z m50 -106 c0 -8 -4 -15 -9 -15 -13 0 -22 16
-14 24 11 11 23 6 23 -9z"/>
<path d="M4710 9775 c-11 -14 -10 -18 9 -31 12 -9 19 -19 16 -23 -2 -5 7 -21
20 -35 14 -15 25 -34 25 -42 0 -16 -46 -38 -61 -28 -12 7 -12 34 1 34 16 0 12
46 -5 60 -23 19 -38 0 -26 -33 9 -23 7 -28 -24 -46 -45 -26 -93 -104 -100
-161 -3 -25 -12 -83 -20 -130 -18 -107 -25 -215 -24 -355 0 -60 0 -125 0 -144
-2 -53 17 -98 50 -122 16 -11 29 -25 29 -30 0 -6 -45 -54 -99 -107 -100 -97
-216 -236 -252 -302 -11 -19 -23 -42 -28 -50 -5 -8 -20 -41 -33 -73 -21 -55
-21 -60 -5 -72 21 -15 21 -29 2 -59 -8 -13 -14 -33 -13 -45 2 -18 -5 -26 -37
-39 -42 -16 -57 -30 -49 -44 9 -14 -23 -20 -44 -9 -15 8 -23 7 -31 -3 -13 -15
-4 -77 13 -88 8 -5 7 -13 -1 -28 -18 -27 -16 -67 3 -74 24 -9 60 21 114 95 55
75 61 102 29 120 -30 16 -10 33 24 20 23 -9 33 -5 84 34 65 48 126 117 167
186 14 26 38 59 51 73 14 15 32 41 41 59 9 18 43 67 75 109 33 43 59 80 59 84
0 20 89 115 163 174 31 25 57 50 57 55 -1 6 -17 20 -36 33 -28 17 -44 21 -74
16 -31 -5 -39 -3 -44 12 -13 44 -2 361 15 438 7 27 25 85 42 130 31 85 32 90
21 198 -5 51 -2 77 10 108 22 54 20 81 -4 87 -15 4 -18 11 -14 29 3 13 5 24 3
25 -74 10 -86 9 -99 -6z m-10 -781 c0 -8 -4 -12 -10 -9 -5 3 -10 10 -10 16 0
5 5 9 10 9 6 0 10 -7 10 -16z m-10 -394 c0 -5 -5 -10 -11 -10 -5 0 -7 5 -4 10
3 6 8 10 11 10 2 0 4 -4 4 -10z m-103 -147 c-15 -16 -17 -16 -17 -1 0 9 6 18
13 21 20 7 22 -2 4 -20z"/>
<path d="M7493 9703 c-31 -16 -52 -60 -39 -82 4 -5 11 -33 16 -62 6 -29 20
-63 31 -75 11 -12 23 -42 26 -66 3 -23 23 -79 43 -123 21 -44 45 -101 53 -126
9 -26 28 -64 42 -85 37 -54 165 -313 165 -334 0 -27 30 -46 103 -65 l69 -18
-2 -46 c-3 -66 -2 -69 23 -73 36 -5 28 -34 -10 -30 -36 4 -35 6 -53 -136 -6
-45 -18 -101 -25 -123 -8 -23 -15 -52 -15 -65 0 -13 -8 -39 -17 -59 -15 -32
-15 -38 -2 -63 19 -35 18 -136 -4 -262 -23 -127 -22 -175 4 -216 20 -34 58
-52 78 -39 6 3 11 33 11 65 0 57 26 140 49 154 23 14 90 145 119 231 30 90 40
146 47 266 8 154 17 238 32 301 8 38 13 74 10 82 -3 7 -1 32 5 55 15 60 4 69
-84 65 -63 -2 -76 0 -95 18 -13 12 -23 28 -23 35 0 8 -13 42 -29 76 -15 34
-34 80 -41 102 -7 22 -19 47 -27 56 -8 10 -27 52 -42 95 -16 44 -40 105 -55
138 -14 32 -26 66 -26 76 0 21 -112 130 -134 130 -20 0 -36 31 -36 70 0 34
-31 111 -52 127 -24 20 -82 22 -115 6z m57 -63 c0 -21 -33 -29 -45 -10 -9 15
4 30 26 30 12 0 19 -7 19 -20z m127 -447 c-3 -10 -5 -4 -5 12 0 17 2 24 5 18
2 -7 2 -21 0 -30z"/>
<path d="M5410 9631 c0 -6 9 -11 20 -11 21 0 45 -43 34 -61 -8 -13 -38 -11
-52 3 -17 17 -21 9 -36 -73 -8 -41 -22 -100 -31 -132 -14 -50 -14 -70 -5 -135
8 -47 9 -115 5 -177 -7 -114 9 -295 31 -339 8 -16 14 -38 14 -48 0 -10 8 -30
17 -44 15 -24 15 -28 -2 -57 -10 -18 -39 -54 -65 -82 -26 -27 -59 -72 -75
-100 -15 -27 -34 -57 -41 -66 -8 -8 -32 -51 -54 -95 -23 -43 -54 -101 -69
-129 -16 -27 -37 -66 -48 -86 -10 -19 -28 -48 -40 -65 -37 -52 -74 -143 -100
-242 -38 -145 -40 -174 -10 -206 40 -43 46 -38 71 74 9 40 72 107 114 121 20
6 45 19 56 28 41 36 130 180 160 262 18 47 47 107 64 133 36 53 39 76 16 111
-16 25 -16 25 13 25 24 0 37 10 71 56 23 31 42 61 42 66 0 17 103 119 140 138
19 10 44 27 54 39 11 12 37 26 58 32 l39 10 -24 20 c-14 10 -38 19 -53 19 -16
0 -47 7 -71 16 -32 13 -44 24 -52 48 -15 51 -23 177 -26 448 l-3 258 -29 40
c-27 36 -29 45 -26 109 3 78 0 83 -70 96 -25 5 -37 4 -37 -4z"/>
<path d="M6066 9591 c-4 -5 -3 -17 0 -25 4 -9 0 -24 -8 -34 -51 -63 -51 -152
0 -389 30 -134 44 -203 52 -258 14 -90 32 -169 48 -207 9 -22 12 -51 9 -72 -7
-46 14 -73 69 -87 52 -13 55 -26 15 -71 -36 -42 -81 -127 -81 -153 0 -11 -11
-36 -24 -55 -28 -43 -42 -87 -51 -162 -3 -31 -15 -81 -27 -110 -11 -29 -29
-82 -40 -118 -11 -36 -38 -100 -60 -143 -34 -64 -39 -84 -35 -115 6 -31 3 -40
-20 -57 -22 -18 -24 -24 -14 -42 6 -12 11 -35 11 -51 0 -16 8 -36 19 -46 20
-18 51 -12 51 10 0 8 9 22 20 31 11 10 20 28 20 42 0 50 23 103 49 113 46 17
151 92 157 113 4 11 15 31 25 44 11 13 19 32 19 43 0 11 16 52 35 91 19 40 43
106 54 147 10 41 31 107 46 145 15 39 32 87 39 107 12 39 116 207 128 208 3 0
25 12 48 27 l41 27 -38 19 c-21 11 -49 30 -63 43 -14 13 -49 28 -78 34 -42 9
-55 17 -67 40 -8 16 -15 39 -15 51 0 12 -11 42 -24 68 -13 25 -27 60 -31 76
-25 126 -34 187 -34 230 1 60 -27 190 -49 225 -9 14 -29 39 -45 57 -26 28 -29
36 -23 75 9 61 -18 113 -58 113 -16 1 -31 6 -34 13 -4 14 -28 16 -36 3z m44
-146 c0 -8 -7 -15 -15 -15 -8 0 -15 7 -15 15 0 8 7 15 15 15 8 0 15 -7 15 -15z"/>
<path d="M6911 9587 c-7 -7 -24 -12 -39 -12 -27 0 -27 0 -24 -68 2 -50 10 -85
31 -130 32 -69 68 -191 78 -264 3 -26 10 -56 15 -67 6 -10 14 -50 18 -90 5
-39 13 -89 18 -111 22 -94 35 -144 53 -203 10 -35 15 -70 12 -77 -6 -18 34
-35 82 -35 19 0 37 -5 40 -11 4 -5 -5 -33 -18 -62 -62 -126 -104 -238 -118
-312 -6 -27 -19 -77 -29 -110 -10 -33 -24 -85 -31 -115 -6 -30 -18 -77 -25
-104 -18 -65 -18 -137 1 -162 23 -30 19 -51 -5 -29 -28 26 -52 13 -48 -27 2
-27 8 -34 28 -36 35 -5 46 -18 31 -36 -9 -11 -18 -13 -31 -6 -17 9 -30 4 -30
-11 0 -12 53 -59 65 -59 15 1 43 68 51 124 4 27 14 56 24 65 9 9 40 37 68 64
29 27 65 75 83 110 54 105 119 289 119 336 0 14 6 35 14 46 13 20 78 228 91
293 4 17 10 32 15 32 4 0 15 21 24 47 l16 47 -27 23 c-16 12 -48 25 -73 28
-87 12 -89 13 -101 58 -7 23 -13 61 -15 84 -2 23 -10 55 -18 72 -9 16 -16 40
-16 52 0 35 -49 205 -77 267 -34 74 -104 173 -146 204 -29 23 -32 31 -34 82
-2 31 -7 66 -13 76 -15 29 -44 42 -59 27z m297 -1413 c-5 -28 -28 -29 -28 -1
0 13 3 27 7 31 10 10 25 -10 21 -30z"/>
<path d="M4099 8047 c-49 -44 -60 -62 -53 -81 9 -25 22 -19 26 12 2 20 9 28
28 30 34 5 50 20 50 48 0 31 -8 30 -51 -9z"/>
<path d="M6884 4443 c-3 -32 -10 -67 -14 -78 -8 -21 -95 -120 -142 -163 -16
-14 -28 -30 -28 -36 0 -6 -6 -23 -14 -37 -7 -14 -16 -39 -20 -55 -11 -43 -56
-115 -67 -108 -7 4 -8 -6 -4 -28 5 -26 1 -41 -19 -68 -13 -19 -40 -65 -60
-102 -19 -37 -61 -103 -93 -146 -32 -43 -72 -100 -90 -125 -37 -53 -88 -88
-156 -107 -40 -11 -60 -11 -118 0 -63 12 -72 12 -104 -6 l-36 -19 198 -11
c296 -18 315 -24 333 -109 6 -31 9 -95 6 -148 -7 -126 -14 -243 -19 -297 -9
-100 31 -217 98 -284 15 -15 25 -36 25 -53 0 -69 57 -96 133 -64 34 15 48 27
54 48 17 59 -5 625 -27 713 -5 19 -10 69 -12 110 l-3 75 52 9 c33 5 91 4 160
-3 59 -7 126 -12 148 -12 22 0 69 -9 104 -20 35 -10 76 -19 91 -19 47 0 77
-41 85 -116 4 -35 4 -79 1 -97 -31 -145 -49 -304 -50 -445 -1 -102 0 -104 26
-126 26 -20 27 -24 16 -52 -12 -33 -7 -69 14 -96 15 -19 24 -21 88 -19 62 1
110 44 110 96 0 20 4 44 9 53 15 28 41 350 45 556 3 162 6 191 20 202 60 43
489 13 555 -39 19 -16 6 -213 -20 -287 -10 -30 -39 -113 -65 -185 -59 -168
-66 -205 -59 -291 4 -47 3 -74 -4 -79 -19 -11 -12 -53 11 -69 49 -35 136 -12
181 47 15 20 27 38 27 41 0 3 18 34 40 68 22 35 40 71 40 81 0 10 7 34 16 55
16 36 25 76 43 192 5 30 17 93 26 139 13 63 16 107 11 171 -6 79 -4 89 14 113
20 25 27 27 97 27 72 0 147 -14 241 -46 23 -8 63 -14 89 -14 59 0 173 -54 173
-81 0 -69 -69 -248 -135 -349 -20 -30 -43 -70 -51 -89 -19 -45 -76 -131 -103
-155 -12 -11 -21 -29 -21 -41 0 -12 -9 -30 -20 -40 -11 -10 -20 -23 -20 -30 0
-7 -18 -39 -41 -73 -22 -33 -38 -66 -34 -71 12 -20 89 -12 135 13 85 46 125
65 150 71 24 5 42 26 121 140 37 52 69 112 69 127 0 8 45 103 69 148 5 8 13
26 19 40 5 14 17 43 26 65 10 23 18 80 21 134 2 51 7 96 10 100 14 13 223 -1
305 -21 103 -25 125 -42 123 -100 -3 -71 -91 -230 -197 -357 -133 -158 -194
-227 -248 -280 -27 -25 -48 -52 -48 -58 0 -7 -10 -32 -21 -57 -47 -96 14 -104
163 -20 116 65 177 116 261 221 135 167 216 316 218 403 0 19 10 62 22 95 l23
60 79 -2 c44 -2 109 -10 145 -19 81 -20 177 -69 185 -95 7 -21 -39 -123 -93
-209 -59 -91 -177 -224 -282 -315 -30 -27 -81 -78 -113 -114 -32 -36 -72 -74
-88 -85 -16 -10 -32 -29 -35 -42 -4 -16 -13 -24 -28 -24 -12 0 -27 -5 -34 -12
-18 -18 14 -48 52 -48 34 0 109 31 120 49 4 6 17 11 30 11 13 0 49 17 82 39
77 50 241 196 259 230 7 15 43 62 79 106 53 63 71 96 100 174 19 53 36 107 38
121 2 20 8 25 29 22 15 -1 32 4 39 13 22 26 50 19 178 -42 93 -45 91 -62 -25
-215 -133 -175 -293 -324 -481 -448 -134 -87 -232 -200 -174 -200 25 0 102 29
140 52 18 11 39 17 47 14 40 -15 251 146 372 284 129 147 146 169 164 210 10
21 27 51 38 67 12 16 26 55 31 87 5 32 14 64 20 72 7 7 41 29 77 49 115 63
267 190 369 307 112 129 213 321 214 408 0 14 7 34 15 44 19 25 19 55 0 62 -8
3 -36 -6 -63 -21 -48 -26 -52 -31 -132 -193 l-82 -167 -156 -150 c-85 -82
-168 -160 -184 -172 -17 -12 -62 -29 -103 -38 -78 -17 -78 -17 -182 32 -20 10
-46 14 -68 10 -61 -10 -41 30 35 68 41 21 409 387 470 468 38 52 41 60 43 125
1 38 7 75 13 83 7 8 14 32 17 54 3 22 9 55 13 73 8 40 -2 40 -52 3 -52 -38
-85 -71 -106 -107 -10 -16 -36 -54 -58 -84 -22 -30 -56 -80 -74 -111 -40 -66
-139 -190 -187 -235 -19 -17 -47 -47 -62 -67 -30 -40 -115 -98 -180 -124 -47
-18 -118 -21 -150 -5 -12 6 -47 18 -77 28 -80 25 -120 46 -120 65 0 9 26 34
58 57 121 85 306 302 362 425 35 77 36 93 13 119 -17 19 -16 20 5 36 22 17 58
125 69 205 5 34 3 37 -20 37 -39 0 -62 -27 -123 -145 -32 -60 -63 -114 -69
-120 -7 -5 -31 -43 -54 -82 -23 -40 -46 -73 -50 -73 -4 0 -16 -18 -26 -41 -10
-22 -26 -46 -34 -52 -9 -7 -60 -61 -114 -121 -88 -98 -105 -112 -185 -151
-109 -54 -169 -63 -277 -40 -44 9 -94 14 -112 10 -17 -3 -34 -1 -38 5 -3 5
-39 10 -80 10 -41 0 -76 4 -79 9 -4 5 11 20 31 32 115 69 319 276 436 441 15
21 27 41 27 44 0 3 14 22 31 43 29 37 64 145 52 164 -3 5 3 21 14 35 24 33 30
163 9 181 -29 24 -213 -172 -321 -341 -21 -35 -56 -81 -77 -103 -20 -22 -55
-67 -76 -100 -44 -67 -68 -93 -162 -178 -70 -64 -157 -109 -258 -134 -58 -15
-67 -15 -130 2 -37 10 -76 24 -87 31 -28 18 -170 18 -198 -1 -29 -18 -99 -24
-104 -8 -3 7 33 31 85 57 72 36 101 58 151 113 33 37 61 71 61 75 0 4 18 37
41 75 45 75 43 72 95 163 21 35 53 85 72 110 50 64 62 100 66 190 2 43 7 83
11 89 3 6 9 37 12 67 7 65 -8 85 -42 55 -11 -10 -30 -22 -42 -26 -27 -8 -38
-42 -29 -90 6 -31 4 -35 -14 -35 -12 0 -20 -7 -20 -17 0 -9 -42 -57 -93 -107
-61 -60 -106 -114 -130 -158 -21 -37 -53 -79 -71 -93 -20 -15 -36 -38 -40 -55
-3 -17 -23 -49 -44 -72 -21 -24 -49 -59 -62 -78 -30 -45 -101 -120 -114 -120
-5 0 -20 -9 -32 -21 -12 -11 -37 -24 -56 -29 -18 -4 -58 -17 -88 -28 -50 -19
-74 -20 -288 -16 -132 2 -241 8 -252 14 -10 5 -27 10 -37 10 -11 0 -24 5 -31
12 -8 8 3 26 46 73 31 35 100 133 152 220 52 86 109 171 125 189 43 47 78 131
117 281 6 22 20 50 31 62 10 12 21 41 24 65 4 37 0 48 -25 77 -34 41 -59 37
-68 -9 -5 -21 -12 -30 -26 -30 -10 0 -21 -8 -25 -17 -3 -10 -38 -50 -76 -90
-39 -39 -79 -87 -91 -105 -11 -18 -25 -38 -32 -45 -6 -6 -26 -35 -44 -65 -75
-121 -106 -164 -137 -191 -18 -16 -47 -50 -65 -75 -17 -26 -45 -63 -62 -83
-17 -19 -47 -54 -66 -78 -47 -57 -110 -97 -193 -122 -58 -17 -77 -19 -113 -10
-23 6 -88 11 -143 11 -105 0 -201 15 -201 31 0 6 11 25 24 42 42 55 85 151
117 258 17 57 40 118 52 134 12 17 33 50 46 75 13 25 32 54 42 65 41 45 93
200 93 278 1 26 4 47 8 47 4 0 15 11 23 24 14 21 14 31 4 68 -16 56 -25 64
-81 72 l-46 7 -8 -58z m-554 -1033 c0 -5 -4 -10 -10 -10 -5 0 -10 5 -10 10 0
6 5 10 10 10 6 0 10 -4 10 -10z"/>
<path d="M5890 4465 c-23 -25 -27 -38 -33 -101 -1 -18 -7 -38 -13 -45 -6 -8
-14 -27 -18 -44 -4 -16 -18 -41 -31 -55 -36 -39 -135 -245 -135 -282 0 -12
-16 -50 -36 -86 -28 -50 -37 -77 -38 -121 -3 -65 -34 -155 -78 -223 -16 -26
-32 -66 -35 -88 -3 -22 -11 -40 -17 -41 -6 0 -65 0 -131 0 -121 0 -252 -22
-257 -44 -5 -17 42 -17 69 0 22 15 40 16 112 11 47 -4 113 -7 146 -7 33 1 94
-7 135 -17 71 -17 76 -20 94 -57 14 -29 20 -67 22 -136 1 -53 10 -131 18 -172
9 -42 16 -87 16 -101 0 -14 7 -45 15 -69 8 -24 19 -74 24 -111 8 -52 16 -74
40 -102 45 -51 63 -91 56 -124 -9 -42 23 -60 105 -60 56 0 67 3 79 22 20 32
25 128 11 189 -8 30 -12 71 -11 92 2 41 -9 84 -39 152 -26 60 -40 104 -55 170
-7 33 -21 79 -30 103 -14 34 -15 48 -6 68 9 20 8 26 -4 30 -8 4 -15 14 -15 24
0 11 -4 22 -10 25 -16 10 -12 57 6 77 20 22 11 35 -51 75 l-43 27 38 70 c20
39 40 83 44 99 4 15 21 50 38 78 26 42 31 60 29 104 -1 41 3 56 15 63 11 6 13
11 5 16 -16 11 -14 61 10 166 19 87 41 256 39 305 0 11 -3 48 -6 83 -5 56 -8
62 -28 62 -12 0 -33 -11 -46 -25z"/>
<path d="M4782 4431 c-7 -21 -12 -50 -12 -65 0 -27 -13 -55 -41 -91 -14 -18
-31 -56 -64 -145 -27 -71 -68 -340 -65 -433 1 -79 -10 -130 -52 -227 -10 -25
-20 -53 -22 -62 -4 -33 -47 -67 -98 -77 -75 -17 -144 -50 -158 -77 -19 -35 -6
-40 32 -11 53 41 137 59 257 58 58 0 113 -3 123 -7 18 -5 43 -52 79 -149 12
-33 32 -85 44 -115 13 -30 32 -84 43 -120 17 -56 92 -211 127 -262 18 -27 111
-98 129 -98 11 0 16 -9 16 -29 0 -30 49 -101 78 -113 30 -12 79 -8 92 7 15 18
12 31 -30 150 -27 78 -58 151 -141 330 -10 22 -31 72 -47 110 -17 39 -47 110
-67 158 -32 76 -36 92 -26 113 14 32 9 41 -29 49 -33 7 -147 62 -155 74 -2 5
9 44 24 89 25 71 30 104 39 264 13 232 16 534 5 550 -4 7 -8 38 -8 69 0 42 -5
62 -19 78 -28 30 -41 26 -54 -18z"/>
<path d="M3795 4327 c-4 -13 3 -48 15 -79 24 -64 21 -76 -35 -156 -25 -37 -41
-76 -52 -125 -17 -82 -16 -71 -37 -387 -16 -228 -17 -236 -41 -257 -31 -27
-171 -57 -328 -69 -94 -7 -123 3 -112 37 8 25 -24 334 -41 396 -8 28 -14 63
-14 78 0 40 -48 279 -73 363 -25 81 -79 154 -99 134 -16 -16 9 -88 45 -129
l28 -32 -21 -43 c-11 -24 -31 -63 -44 -88 -47 -90 -53 -181 -30 -452 3 -36 1
-75 -4 -85 -5 -11 -6 -46 -1 -88 5 -38 10 -81 11 -94 3 -21 -4 -27 -47 -43
-54 -19 -140 -24 -189 -9 -17 5 -51 15 -75 22 -71 21 -88 41 -117 137 -14 48
-50 150 -80 227 -30 77 -54 152 -54 166 0 14 -10 45 -23 70 -49 92 -71 129
-78 129 -3 0 -16 -23 -29 -51 -42 -100 -36 -238 19 -429 11 -36 29 -103 42
-150 12 -47 28 -92 35 -101 8 -8 17 -30 20 -48 l7 -34 -69 8 c-38 4 -103 8
-144 9 -107 3 -106 3 -144 36 -34 31 -99 152 -136 255 -10 28 -41 100 -69 162
-27 62 -57 138 -67 170 -37 126 -43 134 -70 81 -23 -44 -30 -157 -14 -226 23
-103 161 -506 191 -559 33 -57 41 -65 74 -69 13 -1 43 -11 68 -22 37 -16 51
-30 71 -69 36 -72 207 -274 320 -378 116 -107 203 -154 310 -165 59 -7 73 -13
105 -42 80 -76 121 -96 121 -60 0 35 -97 112 -210 168 -88 43 -129 75 -226
175 -153 158 -283 342 -304 429 -11 47 -11 54 7 71 18 18 22 18 59 5 22 -7 67
-19 99 -26 32 -7 76 -21 97 -32 30 -16 44 -18 66 -10 38 13 58 0 73 -46 14
-42 112 -195 197 -304 58 -76 181 -198 200 -198 5 0 16 -7 23 -17 22 -26 89
-51 159 -59 67 -7 96 -23 110 -60 11 -27 93 -76 114 -68 31 12 17 48 -39 102
-30 29 -70 59 -89 67 -50 21 -222 170 -253 218 -14 23 -51 70 -82 104 -72 78
-164 254 -165 315 -1 41 0 42 44 55 66 20 206 9 329 -25 18 -5 28 -20 40 -58
9 -28 21 -57 27 -65 7 -8 29 -54 50 -104 56 -132 155 -278 234 -343 71 -58
160 -105 183 -97 8 4 31 -11 53 -33 44 -43 127 -92 155 -92 22 0 24 21 8 53
-16 30 -30 37 -50 26 -24 -13 -29 -11 -29 7 0 9 9 18 20 21 25 7 26 39 2 52
-22 12 -43 -4 -36 -24 8 -19 -12 -27 -25 -11 -8 10 -9 16 -1 21 16 10 12 46
-7 52 -10 3 -33 28 -51 56 -80 128 -114 178 -166 247 -59 77 -161 271 -172
326 -5 25 -1 36 18 54 22 21 29 22 173 18 121 -3 157 -7 184 -22 24 -13 47
-17 78 -13 l44 5 26 -57 c14 -31 29 -63 34 -71 5 -8 29 -57 55 -108 25 -51 57
-105 69 -120 12 -15 36 -54 52 -87 63 -127 128 -192 235 -234 41 -17 64 -33
78 -56 48 -78 128 -118 159 -81 14 16 7 37 -29 91 -15 22 -59 90 -98 150 -39
61 -82 124 -95 142 -43 57 -187 357 -190 393 l-3 35 -74 11 c-77 12 -155 38
-178 59 -11 10 -11 32 2 126 18 146 12 514 -10 604 -9 33 -15 69 -14 80 7 142
-3 195 -48 248 -21 24 -50 22 -57 -6z"/>
<path d="M2242 4160 c1 -13 9 -25 16 -28 17 -5 15 23 -4 39 -14 11 -15 10 -12
-11z"/>
<path d="M1640 4087 c0 -6 14 -25 30 -40 35 -33 38 -26 10 21 -20 32 -40 42
-40 19z"/>
<path d="M2285 4048 c8 -51 19 -65 38 -50 10 8 12 23 8 49 -5 30 -11 39 -30
41 -22 4 -23 2 -16 -40z"/>
<path d="M1285 3643 c-4 -15 -8 -33 -10 -39 -5 -18 14 -165 23 -178 5 -6 14
-31 21 -56 7 -25 23 -63 37 -85 13 -22 37 -65 52 -95 15 -31 37 -69 48 -85 12
-17 32 -50 44 -75 12 -25 29 -49 37 -53 7 -5 21 -26 29 -47 15 -36 19 -39 67
-45 29 -3 59 -8 68 -11 16 -4 79 -96 79 -114 0 -12 89 -119 173 -209 150 -159
261 -229 389 -245 45 -5 90 -29 137 -73 43 -40 84 -36 61 7 -14 26 -88 80
-109 80 -9 0 -28 8 -41 18 -13 9 -48 31 -78 47 -46 26 -162 127 -296 260 -73
72 -145 174 -163 231 -14 47 -15 62 -5 100 14 53 9 68 -24 60 -33 -9 -163 29
-192 56 -33 32 -77 98 -119 182 -19 39 -55 104 -80 144 -24 40 -61 112 -82
160 -21 47 -43 88 -49 90 -6 2 -14 -9 -17 -25z"/>
<path d="M11548 3303 c-29 -36 -49 -75 -78 -152 -50 -138 -77 -180 -184 -288
-55 -57 -104 -111 -107 -121 -23 -58 -184 -152 -261 -152 -29 0 -30 -2 -24
-34 11 -57 -26 -133 -114 -233 -132 -150 -284 -286 -360 -321 -61 -28 -199
-112 -249 -151 -35 -28 -81 -87 -81 -105 0 -15 40 -3 86 26 27 17 81 41 119
53 86 27 146 63 219 133 31 30 79 73 106 95 117 98 290 330 290 389 0 24 35
48 76 55 22 3 46 11 54 18 8 7 29 19 45 28 17 8 44 29 60 46 17 17 70 66 118
109 49 42 105 101 125 131 20 29 54 76 74 105 44 61 89 142 82 148 -11 12 -6
79 7 95 8 10 20 38 26 63 7 25 15 53 18 63 5 12 2 17 -12 17 -11 0 -27 -8 -35
-17z m-218 -483 c0 -5 -5 -10 -11 -10 -5 0 -7 5 -4 10 3 6 8 10 11 10 2 0 4
-4 4 -10z"/>
<path d="M5866 3261 c-3 -4 3 -16 13 -25 21 -19 37 -7 27 19 -6 16 -32 20 -40
6z"/>
<path d="M4205 3200 c4 -6 11 -8 16 -5 14 9 11 15 -7 15 -8 0 -12 -5 -9 -10z"/>
<path d="M6390 2910 c0 -5 5 -10 10 -10 6 0 10 5 10 10 0 6 -4 10 -10 10 -5 0
-10 -4 -10 -10z"/>
<path d="M10776 2651 c-3 -5 4 -11 17 -15 36 -9 47 -7 41 9 -7 16 -49 21 -58
6z"/>
<path d="M10960 2446 c0 -15 24 -28 34 -19 7 7 -13 33 -25 33 -5 0 -9 -6 -9
-14z"/>
<path d="M2175 2210 c-3 -6 1 -13 10 -16 19 -8 30 0 20 15 -8 14 -22 14 -30 1z"/>
<path d="M10182 1510 c-18 -29 -15 -30 18 -14 33 17 40 34 12 34 -9 0 -23 -9
-30 -20z"/>
</g>
</svg>
